<svg width="190" height="190" viewBox="0 0 190 190" fill="none" xmlns="http://www.w3.org/2000/svg">
<rect width="190" height="190" fill="black"/>
<path d="M85 95C85 95 71.7089 115 50.443 115C29.1772 115 15.8861 96.0714 15 95C15 95 25.6329 75 50.443 75C71.4135 75 85 95 85 95Z" fill="#FF0000"/>
<path d="M176 95C176 95 162.709 115 141.443 115C120.177 115 106.886 96.0714 106 95C106 95 116.633 75 141.443 75C162.414 75 176 95 176 95Z" fill="#FF0000"/>
<ellipse cx="50.5" cy="95.5" rx="10.5" ry="12.5" fill="black"/>
<ellipse cx="141" cy="95.5" rx="10" ry="12.5" fill="black"/>
</svg>
